<svg
  width="127"
  height="120"
  viewBox="0 0 127 120"
  fill="none"
  xmlns="http://www.w3.org/2000/svg"
>
  <g clip-path="url(#clip0_214_753)">
    <path
      d="M63.5 64.3478C63.5 60.8885 64.8668 57.5708 67.2997 55.1247C69.7326 52.6786 73.0323 51.3044 76.473 51.3044H93.7703C97.2109 51.3044 100.511 52.6786 102.944 55.1247C105.376 57.5708 106.743 60.8885 106.743 64.3478V77.3913C106.743 78.5444 106.288 79.6503 105.477 80.4657C104.666 81.2811 103.566 81.7391 102.419 81.7391H67.8243C66.6774 81.7391 65.5775 81.2811 64.7666 80.4657C63.9556 79.6503 63.5 78.5444 63.5 77.3913C63.5 78.5444 63.0444 79.6503 62.2334 80.4657C61.4225 81.2811 60.3226 81.7391 59.1757 81.7391H24.5811C23.4342 81.7391 22.3343 81.2811 21.5233 80.4657C20.7124 79.6503 20.2568 78.5444 20.2568 77.3913V64.3478C20.2568 60.8885 21.6236 57.5708 24.0565 55.1247C26.4894 52.6786 29.7891 51.3044 33.2297 51.3044H50.527C53.9677 51.3044 57.2674 52.6786 59.7003 55.1247C62.1332 57.5708 63.5 60.8885 63.5 64.3478ZM41.8784 46.9565C38.4377 46.9565 35.138 45.5823 32.7051 43.1362C30.2722 40.6901 28.9054 37.3724 28.9054 33.913C28.9054 30.4537 30.2722 27.136 32.7051 24.6899C35.138 22.2438 38.4377 20.8696 41.8784 20.8696C45.319 20.8696 48.6188 22.2438 51.0517 24.6899C53.4846 27.136 54.8514 30.4537 54.8514 33.913C54.8514 37.3724 53.4846 40.6901 51.0517 43.1362C48.6188 45.5823 45.319 46.9565 41.8784 46.9565ZM85.1216 46.9565C81.681 46.9565 78.3812 45.5823 75.9483 43.1362C73.5154 40.6901 72.1486 37.3724 72.1486 33.913C72.1486 30.4537 73.5154 27.136 75.9483 24.6899C78.3812 22.2438 81.681 20.8696 85.1216 20.8696C88.5623 20.8696 91.862 22.2438 94.2949 24.6899C96.7278 27.136 98.0946 30.4537 98.0946 33.913C98.0946 37.3724 96.7278 40.6901 94.2949 43.1362C91.862 45.5823 88.5623 46.9565 85.1216 46.9565Z"
      fill="#475569"></path>
    <path
      d="M63.5 64.3478C60.0594 64.3478 56.7596 62.9736 54.3267 60.5275C51.8938 58.0814 50.5271 54.7637 50.5271 51.3043C50.5271 47.845 51.8938 44.5273 54.3267 42.0812C56.7596 39.6351 60.0594 38.2609 63.5 38.2609C66.9407 38.2609 70.2404 39.6351 72.6733 42.0812C75.1062 44.5273 76.473 47.845 76.473 51.3043C76.473 54.7637 75.1062 58.0814 72.6733 60.5275C70.2404 62.9736 66.9407 64.3478 63.5 64.3478ZM50.5271 68.6957H76.473C79.9136 68.6957 83.2134 70.0699 85.6463 72.516C88.0792 74.9621 89.446 78.2798 89.446 81.7391V94.7826C89.446 95.9357 88.9904 97.0416 88.1794 97.857C87.3684 98.6724 86.2685 99.1304 85.1216 99.1304H41.8784C40.7315 99.1304 39.6316 98.6724 38.8206 97.857C38.0097 97.0416 37.5541 95.9357 37.5541 94.7826V81.7391C37.5541 78.2798 38.9209 74.9621 41.3538 72.516C43.7867 70.0699 47.0864 68.6957 50.5271 68.6957Z"
      fill="#1E293B"></path>
  </g>
  <defs>
    <clipPath id="clip0_214_753">
      <rect
        width="86.4865"
        height="80"
        fill="white"
        transform="translate(20.2568 20)"></rect>
    </clipPath>
  </defs>
</svg>
